<?xml version="1.0" encoding="utf-8"?>
<!-- Generator: Adobe Illustrator 22.1.0, SVG Export Plug-In . SVG Version: 6.00 Build 0)  -->
<svg version="1.1" id="Calque_1" xmlns="http://www.w3.org/2000/svg" xmlns:xlink="http://www.w3.org/1999/xlink" x="0px" y="0px"
	 viewBox="0 0 16 16" style="enable-background:new 0 0 16 16;" xml:space="preserve">
<style type="text/css">
	.st0{fill:none;}
	.st1{fill:#424242;}
</style>
<line class="st0" x1="7.9" y1="0.7" x2="7.9" y2="7.6"/>
<path class="st1" d="M10-0.1v3.8h2c0.4,0,0.7,0.4,0.4,0.6l-4.1,3c-0.2,0.1-0.5,0.1-0.7,0l-4.1-3c-0.3-0.2,0-0.6,0.4-0.6h2v-3.8"/>
<g>
	<path class="st1" d="M5.9,8v1H4.5v5.1H3.3V9H2V8H5.9z"/>
	<path class="st1" d="M9.6,9.7v1H7.4v1.4h2v1h-2v1.6h2.3v1H6.2V9.7H9.6z"/>
	<path class="st1" d="M10.5,8h1.4l0.8,2l0.8-2h1.3l-1.4,3l1.5,3.1h-1.4l-0.9-2.1l-0.9,2.1h-1.3l1.5-3.1L10.5,8z"/>
</g>
</svg>
