<svg xmlns="http://www.w3.org/2000/svg" id="Calque_1" data-name="Calque 1" version="1.1" viewBox="0 0 16 16">
  <defs>
    <style>
      .cls-1 {
        fill: #000;
        stroke-width: 0
      }
    </style>
  </defs>
  <path d="M7.9.8v6.9" style="stroke-width:0;fill:none" />
  <path d="M11.1 7.8c-.3 0-1.1-.3-2.1.1-.6.3-1 .7-1.2.9-1.2 0-1.8.3-2.1.7s0 .5-.5 1.3-.8.9-.8 1.5.3.9.2 1c-.4.4-.8.4-.9.6 0 .2 0 .7 1.1.6v.8c.7 0 .8-.2 1-.6 0 .3 0 .8.2.8s1.4-.5 1.3-2c.8.3 1.9.2 2.3-.6 1.1.3 2 .4 2.7 0 .7-.3 1.8-1.3 1.8-2.5s-.6-1.5-.9-1.7-1-.6-1.4-.7z" style="fill:none;stroke:#000;stroke-miterlimit:10;stroke-width:.8px" />
  <circle cx="8.1" cy="11.5" r=".8" style="fill:none;stroke-miterlimit:10;stroke-width:.6px;stroke:#000" />
  <circle cx="3.5" cy="9.8" r=".7" class="cls-1" />
  <circle cx="1.9" cy="10.3" r=".5" class="cls-1" />
  <circle cx="3" cy="11.6" r=".5" class="cls-1" />
  <path d="M10 0v3.8h2c.4 0 .7.4.4.6l-4.1 3h-.7l-4.1-3c-.3-.2 0-.6.4-.6h2V0" class="cls-1" />
</svg>