<?xml version="1.0" encoding="utf-8"?>
<!-- Generator: Adobe Illustrator 22.1.0, SVG Export Plug-In . SVG Version: 6.00 Build 0)  -->
<svg version="1.1" id="Calque_1" xmlns="http://www.w3.org/2000/svg" xmlns:xlink="http://www.w3.org/1999/xlink" x="0px" y="0px"
	 viewBox="0 0 16 16" style="enable-background:new 0 0 16 16;" xml:space="preserve">
<style type="text/css">
	.st0{fill:none;}
	.st1{fill:#C4C4C4;}
</style>
<line class="st0" x1="7.9" y1="0.8" x2="7.9" y2="7.7"/>
<path class="st1" d="M10,0v3.8h2c0.4,0,0.7,0.4,0.4,0.6l-4.1,3c-0.2,0.1-0.5,0.1-0.7,0l-4.1-3c-0.3-0.2,0-0.6,0.4-0.6h2V0"/>
<g>
	<path class="st1" d="M1.5,8.8h2.3c1.3,0,1.8,1.1,1.8,2.1c0,1.5-0.8,2.2-2,2.2H2.8V16H1.5V8.8z M2.8,12.1h0.6c0.5,0,0.9-0.3,0.9-1.1
		c0-0.7-0.3-1.1-0.9-1.1H2.8V12.1z"/>
	<path class="st1" d="M6.2,8.8h2.1c1.8,0,2.1,1.4,2.1,3.5c0,2.5-0.5,3.7-2.2,3.7h-2V8.8z M7.5,14.9h0.6c0.9,0,1.1-0.6,1.1-2.6
		c0-1.6-0.1-2.5-1.1-2.5H7.5V14.9z"/>
	<path class="st1" d="M11.3,8.8h3.6V10h-2.3v1.7h2.2v1.2h-2.2V16h-1.3V8.8z"/>
</g>
</svg>
