<?xml version="1.0" encoding="utf-8"?>
<!-- Generator: Adobe Illustrator 22.1.0, SVG Export Plug-In . SVG Version: 6.00 Build 0)  -->
<svg version="1.1" id="Calque_1" xmlns="http://www.w3.org/2000/svg" xmlns:xlink="http://www.w3.org/1999/xlink" x="0px" y="0px"
	 viewBox="0 0 16 16" style="enable-background:new 0 0 16 16;" xml:space="preserve">
<style type="text/css">
	.st0{fill:#C4C4C4;}
</style>
<path class="st0" d="M15.1,4L12,0.9c-0.1-0.1-0.2-0.1-0.4-0.1H1.2C0.9,0.7,0.7,1,0.7,1.3v13.4c0,0.3,0.2,0.6,0.5,0.6h13.6
	c0.3,0,0.5-0.2,0.5-0.6V4.4C15.3,4.2,15.2,4.1,15.1,4z M7.2,1.9H9V5H7.2V1.9z M14.3,14.1H1.7V1.9H4v4.4h6.3V1.9h1.2l2.9,2.8
	C14.3,4.6,14.3,14.1,14.3,14.1z"/>
</svg>
