<?xml version="1.0" encoding="utf-8"?>
<!-- Generator: Adobe Illustrator 22.1.0, SVG Export Plug-In . SVG Version: 6.00 Build 0)  -->
<svg version="1.1" id="Calque_1" xmlns="http://www.w3.org/2000/svg" xmlns:xlink="http://www.w3.org/1999/xlink" x="0px" y="0px"
	 viewBox="0 0 16 16" style="enable-background:new 0 0 16 16;" xml:space="preserve">
<style type="text/css">
	.st0{fill:#424242;}
	.st1{fill:none;}
</style>
<g>
	<path class="st0" d="M0,9h1.1v2.7h1.2V9h1.1v7H2.3v-3.1H1.1V16H0V9z"/>
	<path class="st0" d="M7.2,9v1.2H6V16H5v-5.9H3.8V9H7.2z"/>
	<path class="st0" d="M7.7,9h1.6l0.7,5h0l0.8-5h1.6v7h-1v-5.6h0L10.4,16H9.6l-0.9-5.6h0V16h-1V9z"/>
	<path class="st0" d="M13.1,16V9h1.1v5.9H16V16H13.1z"/>
</g>
<line class="st1" x1="7.9" y1="0.8" x2="7.9" y2="7.7"/>
<path class="st0" d="M10,0v3.8h2c0.4,0,0.7,0.4,0.4,0.6l-4.1,3c-0.2,0.1-0.5,0.1-0.7,0l-4.1-3C3.2,4.2,3.5,3.8,3.9,3.8h2V0"/>
</svg>
